<?xml version="1.0" encoding="UTF-8" standalone="no"?>
<svg
   xmlns:dc="http://purl.org/dc/elements/1.1/"
   xmlns:cc="http://creativecommons.org/ns#"
   xmlns:rdf="http://www.w3.org/1999/02/22-rdf-syntax-ns#"
   xmlns:svg="http://www.w3.org/2000/svg"
   xmlns="http://www.w3.org/2000/svg"
   xmlns:sodipodi="http://sodipodi.sourceforge.net/DTD/sodipodi-0.dtd"
   xmlns:inkscape="http://www.inkscape.org/namespaces/inkscape"
   width="1024px"
   height="901px"
   viewBox="0 0 1024 901"
   version="1.1"
   id="svg844"
   sodipodi:docname="rocketchat-icon-mono.svg"
   inkscape:version="1.0.2 (e86c8708, 2021-01-15)">
  <metadata
     id="metadata848">
    <rdf:RDF>
      <cc:Work
         rdf:about="">
        <dc:format>image/svg+xml</dc:format>
        <dc:type
           rdf:resource="http://purl.org/dc/dcmitype/StillImage" />
      </cc:Work>
    </rdf:RDF>
  </metadata>
  <sodipodi:namedview
     pagecolor="#ffffff"
     bordercolor="#666666"
     borderopacity="1"
     objecttolerance="10"
     gridtolerance="10"
     guidetolerance="10"
     inkscape:pageopacity="0"
     inkscape:pageshadow="2"
     inkscape:window-width="1759"
     inkscape:window-height="1100"
     id="namedview846"
     showgrid="false"
     inkscape:zoom="0.65234375"
     inkscape:cx="512"
     inkscape:cy="450.5"
     inkscape:window-x="0"
     inkscape:window-y="25"
     inkscape:window-maximized="0"
     inkscape:current-layer="svg844" />
  <!-- Generator: Sketch 51 (57462) - http://www.bohemiancoding.com/sketch -->
  <title
     id="title833">Group 3</title>
  <desc
     id="desc835">Created with Sketch.</desc>
  <defs
     id="defs837" />
  <g
     id="Page-1"
     stroke="none"
     stroke-width="1"
     fill="none"
     fill-rule="evenodd"
     style="stroke:#ffffff;stroke-opacity:1;fill:#ffffff;fill-opacity:1">
    <g
       id="icon-copy"
       fill="#000000"
       fill-rule="nonzero"
       style="stroke:#ffffff;stroke-opacity:1;fill:#ffffff;fill-opacity:1">
      <g
         id="Group-3"
         style="stroke:#ffffff;stroke-opacity:1;fill:#ffffff;fill-opacity:1">
        <path
           d="M897.652553,349.549588 L897.670672,349.577915 C897.667651,349.573194 897.664631,349.568473 897.66161,349.563753 C897.658591,349.559031 897.655572,349.55431 897.652553,349.549588 Z M308.396914,38.0579853 C339.950051,55.5852084 369.77579,77.7610018 395.247258,102.408989 C436.3062,94.971277 478.642804,91.2207259 521.592685,91.2207259 C650.166356,91.2207259 772.06552,124.954556 864.813551,186.188905 C912.843417,217.915397 951.019953,255.558252 978.269926,298.082105 C1008.61695,345.465828 1024,396.420498 1024,451.020069 C1024,504.151115 1008.61695,555.126915 978.269926,602.500072 C951.019953,645.045056 912.843417,682.677345 864.813551,714.403838 C772.06552,775.638187 650.176577,809.350887 521.592685,809.350887 C478.642804,809.350887 436.316421,805.600336 395.247258,798.173188 C369.765569,822.810611 339.950051,844.996969 308.396914,862.524192 C139.806873,946.969698 0,864.5104 0,864.5104 C0,864.5104 129.984209,754.138549 108.846571,657.384897 C50.6874021,597.766982 19.1751495,525.862051 19.1751495,449.572673 C19.1751495,374.720126 50.6976233,302.815195 108.846571,243.186716 C129.980709,146.459648 0.0430429402,36.1083296 1.06907039e-05,36.071787 C0.0415865255,36.0472508 139.831947,-46.3855248 308.396914,38.0579853 Z M207.644933,618.178321 C223.940731,670.240929 214.393935,728.919862 179.004543,794.21512 C177.311439,797.338984 175.734295,800.498544 174.02153,803.617499 C204.383377,801.072684 235.071647,792.732517 266.148978,777.445905 C289.594908,764.226126 312.088128,747.449933 331.278991,728.911725 L366.597865,694.794 C414.907252,707.829484 467.909245,715.027017 523.505618,715.027017 C749.086014,715.027017 931.955056,596.533805 931.955056,450.365019 C931.955056,304.196234 749.086014,185.703021 523.505618,185.703021 C297.925222,185.703021 115.05618,304.196234 115.05618,450.365019 C115.05618,514.064252 149.785743,572.507481 207.644933,618.178321 Z"
           id="Combined-Shape"
           style="stroke:#ffffff;stroke-opacity:1;fill:#ffffff;fill-opacity:1" />
        <path
           d="M328.100131,509.450766 C294.861648,509.450766 267.916533,482.59514 267.916533,449.467047 C267.916533,416.338954 294.861648,389.483328 328.100131,389.483328 C361.338614,389.483328 388.283729,416.338954 388.283729,449.467047 C388.283729,482.59514 361.338614,509.450766 328.100131,509.450766 Z M521.861958,509.450766 C488.623475,509.450766 461.67836,482.59514 461.67836,449.467047 C461.67836,416.338954 488.623475,389.483328 521.861958,389.483328 C555.100442,389.483328 582.045556,416.338954 582.045556,449.467047 C582.045556,482.59514 555.100442,509.450766 521.861958,509.450766 Z M715.623786,509.450766 C682.385302,509.450766 655.440188,482.59514 655.440188,449.467047 C655.440188,416.338954 682.385302,389.483328 715.623786,389.483328 C748.862269,389.483328 775.807384,416.338954 775.807384,449.467047 C775.807384,482.59514 748.862269,509.450766 715.623786,509.450766 Z"
           id="circles"
           style="stroke:#ffffff;stroke-opacity:1;fill:#ffffff;fill-opacity:1" />
      </g>
    </g>
  </g>
</svg>
