<?xml version="1.0" encoding="iso-8859-1"?>
<!-- Generator: Adobe Illustrator 19.0.0, SVG Export Plug-In . SVG Version: 6.00 Build 0)  -->
<svg version="1.1" id="Layer_1" xmlns="http://www.w3.org/2000/svg" xmlns:xlink="http://www.w3.org/1999/xlink" x="0px" y="0px"
	 viewBox="0 0 512 512" style="enable-background:new 0 0 512 512;" xml:space="preserve">
<g>
	<g>
		<g>
			<path d="M442.947,199.641H200.759c-19.622-32.185-54.505-51.93-92.47-51.93C48.578,147.711,0,196.29,0,256
				s48.578,108.289,108.289,108.289c37.965,0,72.848-19.747,92.47-51.93h301.042c5.633,0,10.199-4.567,10.199-10.199v-33.466
				C512,230.618,481.023,199.641,442.947,199.641z M491.602,291.96H194.845c-3.763,0-7.221,2.072-8.995,5.392
				c-15.342,28.706-45.06,46.538-77.561,46.538c-48.464,0-87.891-39.427-87.891-87.891s39.427-87.891,87.891-87.891
				c32.501,0,62.219,17.833,77.561,46.538c1.774,3.32,5.231,5.392,8.995,5.392h248.103c26.828,0,48.654,21.826,48.654,48.654V291.96
				z"/>
			<path d="M66.745,225.029c-17.078,0-30.971,13.893-30.971,30.971s13.893,30.971,30.971,30.971
				c17.079,0,30.972-13.893,30.972-30.971C97.717,238.923,83.822,225.029,66.745,225.029z M66.745,266.573
				c-5.83,0-10.573-4.743-10.573-10.573c0-5.83,4.743-10.573,10.573-10.573c5.83,0,10.572,4.743,10.572,10.573
				C77.317,261.83,72.574,266.573,66.745,266.573z"/>
		</g>
	</g>
</g>
<g>
	<g>
		<path d="M439.485,255.033h-26.706l-26.886-11.831c-2.618-1.151-5.598-1.151-8.215,0l-26.887,11.831H249.88
			c-5.633,0-10.199,4.567-10.199,10.199c0,5.632,4.566,10.199,10.199,10.199h103.055c1.414,0,2.813-0.294,4.107-0.864l24.742-10.888
			l24.742,10.888c1.294,0.57,2.693,0.864,4.107,0.864h28.85c5.633,0,10.199-4.567,10.199-10.199
			C449.684,259.6,445.118,255.033,439.485,255.033z"/>
	</g>
</g>
<g>
	<g>
		<path d="M211.124,255.033h-8.207c-5.633,0-10.199,4.567-10.199,10.199c0,5.632,4.566,10.199,10.199,10.199h8.207
			c5.633,0,10.199-4.567,10.199-10.199C221.323,259.6,216.757,255.033,211.124,255.033z"/>
	</g>
</g>
<g>
</g>
<g>
</g>
<g>
</g>
<g>
</g>
<g>
</g>
<g>
</g>
<g>
</g>
<g>
</g>
<g>
</g>
<g>
</g>
<g>
</g>
<g>
</g>
<g>
</g>
<g>
</g>
<g>
</g>
</svg>
