<?xml version="1.0" encoding="utf-8"?>
<!-- Generator: Adobe Illustrator 18.0.0, SVG Export Plug-In . SVG Version: 6.00 Build 0)  -->
<!DOCTYPE svg PUBLIC "-//W3C//DTD SVG 1.1//EN" "http://www.w3.org/Graphics/SVG/1.1/DTD/svg11.dtd">
<svg version="1.1" id="Artwork" xmlns="http://www.w3.org/2000/svg" xmlns:xlink="http://www.w3.org/1999/xlink" x="0px" y="0px"
	 viewBox="0 0 512 512" enable-background="new 0 0 512 512" xml:space="preserve">
<g>
	<path d="M363.4,66.5H252.1c-6.8,0-12.3,5.5-12.3,12.3S245.3,91,252.1,91h111.3c6.8,0,12.3-5.5,12.3-12.3S370.2,66.5,363.4,66.5z"/>
	<circle cx="161.2" cy="78.8" r="12.6"/>
	<path d="M363.4,176.8H252.1c-6.8,0-12.3,5.5-12.3,12.3c0,6.8,5.5,12.3,12.3,12.3h111.3c6.8,0,12.3-5.5,12.3-12.3
		C375.7,182.3,370.2,176.8,363.4,176.8z"/>
	<circle cx="161.2" cy="189.1" r="12.6"/>
	<path d="M57.7,296.3v6.1c0,35.5,28.9,64.3,64.3,64.3h268c35.5,0,64.3-28.9,64.3-64.3v-6.1c0-21.4-10.6-40.4-26.7-52.1
		c16.2-11.7,26.7-30.7,26.7-52.1V186c0-21.4-10.6-40.4-26.7-52.1c16.2-11.7,26.7-30.7,26.7-52.1v-6.1c0-35.5-28.9-64.3-64.3-64.3
		H122c-35.5,0-64.3,28.9-64.3,64.3v6.1c0,21.4,10.6,40.4,26.7,52.1c-16.2,11.7-26.7,30.7-26.7,52.1v6.1c0,21.4,10.6,40.4,26.7,52.1
		C68.2,255.9,57.7,274.9,57.7,296.3z M82.2,81.8v-6.1c0-22,17.9-39.8,39.8-39.8h268c22,0,39.8,17.9,39.8,39.8v6.1
		c0,22-17.9,39.8-39.8,39.8H122C100,121.7,82.2,103.8,82.2,81.8z M82.2,192.1V186c0-22,17.9-39.8,39.8-39.8h268
		c22,0,39.8,17.9,39.8,39.8v6.1c0,22-17.9,39.8-39.8,39.8H122C100,232,82.2,214.1,82.2,192.1z M82.2,296.3c0-22,17.9-39.8,39.8-39.8
		h268c22,0,39.8,17.9,39.8,39.8v6.1c0,22-17.9,39.8-39.8,39.8H122c-22,0-39.8-17.9-39.8-39.8V296.3z"/>
	<path d="M252.1,311.6h111.3c6.8,0,12.3-5.5,12.3-12.3c0-6.8-5.5-12.3-12.3-12.3H252.1c-6.8,0-12.3,5.5-12.3,12.3
		C239.8,306.1,245.3,311.6,252.1,311.6z"/>
	<circle cx="161.2" cy="299.4" r="12.6"/>
	<path d="M256,387.5c-6.8,0-12.3,5.5-12.3,12.3v25.5c-11.5,3.8-20.6,12.9-24.4,24.4H96.8c-6.8,0-12.3,5.5-12.3,12.3
		s5.5,12.3,12.3,12.3h122.5c5.1,15.3,19.6,26.4,36.7,26.4c17,0,31.5-11.1,36.7-26.4h122.5c6.8,0,12.3-5.5,12.3-12.3
		s-5.5-12.3-12.3-12.3H292.7c-3.8-11.5-12.9-20.6-24.4-24.4v-25.5C268.2,393,262.8,387.5,256,387.5z M256,476.1
		c-7.8,0-14.2-6.4-14.2-14.2c0-7.8,6.4-14.2,14.2-14.2c7.8,0,14.2,6.4,14.2,14.2C270.2,469.7,263.8,476.1,256,476.1z"/>
</g>
</svg>
